<?xml version="1.0" encoding="UTF-8" standalone="no"?>
<!-- Created with Inkscape (http://www.inkscape.org/) -->

<svg
   width="108"
   height="108"
   id="svg2"
   sodipodi:version="0.32"
   inkscape:version="1.2.1 (9c6d41e410, 2022-07-14)"
   version="1.0"
   sodipodi:docname="TKWeek_monochrome.svg"
   inkscape:output_extension="org.inkscape.output.svg.inkscape"
   inkscape:export-filename="/Users/tommi/Kalenderblätter.png"
   inkscape:export-xdpi="28.01"
   inkscape:export-ydpi="28.01"
   xmlns:inkscape="http://www.inkscape.org/namespaces/inkscape"
   xmlns:sodipodi="http://sodipodi.sourceforge.net/DTD/sodipodi-0.dtd"
   xmlns="http://www.w3.org/2000/svg"
   xmlns:svg="http://www.w3.org/2000/svg"
   xmlns:rdf="http://www.w3.org/1999/02/22-rdf-syntax-ns#"
   xmlns:cc="http://creativecommons.org/ns#"
   xmlns:dc="http://purl.org/dc/elements/1.1/">
  <defs
     id="defs4" />
  <sodipodi:namedview
     id="base"
     pagecolor="#ffffff"
     bordercolor="#666666"
     borderopacity="1.0"
     gridtolerance="10000"
     guidetolerance="10"
     objecttolerance="10"
     inkscape:pageopacity="0.0"
     inkscape:pageshadow="2"
     inkscape:zoom="5.6"
     inkscape:cx="22.053571"
     inkscape:cy="48.125"
     inkscape:document-units="px"
     inkscape:current-layer="layer1"
     showgrid="false"
     inkscape:window-width="1920"
     inkscape:window-height="991"
     inkscape:window-x="-9"
     inkscape:window-y="-9"
     inkscape:window-maximized="1"
     fit-margin-top="0"
     fit-margin-left="0"
     fit-margin-right="0"
     fit-margin-bottom="0"
     inkscape:showpageshadow="2"
     inkscape:pagecheckerboard="0"
     inkscape:deskcolor="#d1d1d1"
     showborder="false" />
  <metadata
     id="metadata7">
    <rdf:RDF>
      <cc:Work
         rdf:about="">
        <dc:format>image/svg+xml</dc:format>
        <dc:type
           rdf:resource="http://purl.org/dc/dcmitype/StillImage" />
      </cc:Work>
    </rdf:RDF>
  </metadata>
  <g
     inkscape:label="Layer 1"
     inkscape:groupmode="layer"
     id="layer1"
     transform="translate(-0.97632684,-4.0892334)">
    <g
       id="path3462" />
    <g
       id="text3464"
       style="font-style:normal;font-variant:normal;font-weight:normal;font-stretch:normal;font-size:56px;font-family:'Bitstream Vera Serif';-inkscape-font-specification:'Bitstream Vera Serif';fill:#000000;fill-opacity:1;stroke:none;stroke-width:1px;stroke-linecap:butt;stroke-linejoin:miter;stroke-opacity:1"
       transform="matrix(0.29189297,0.05886361,-0.05886361,0.29189297,29.912307,32.149496)" />
    <g
       id="text3468"
       style="font-style:normal;font-variant:normal;font-weight:normal;font-stretch:normal;font-size:32px;font-family:'Bitstream Vera Serif';-inkscape-font-specification:'Bitstream Vera Serif';fill:#000000;fill-opacity:1;stroke:none;stroke-width:1px;stroke-linecap:butt;stroke-linejoin:miter;stroke-opacity:1"
       transform="matrix(0.29189297,0.05886361,-0.05886361,0.29189297,29.912307,32.149496)">
      <path
         id="path4225"
         d="m 125.97902,98.045967 v 14.578123 q 0,3.57813 -1.96875,5.51563 -1.96875,1.95312 -5.60938,1.95312 -1.64062,0 -3.14062,-0.29687 -1.5,-0.29688 -2.875,-0.89063 v -3.48437 h 1.5 q 0.28125,1.625 1.32812,2.375 1.04688,0.75 3,0.75 2.53125,0 3.70313,-1.4375 1.1875,-1.42188 1.1875,-4.48438 v -2.23437 q -0.84375,1.5625 -2.15625,2.3125 -1.29688,0.73437 -3.21875,0.73437 -3.0625,0 -5.01563,-2.42187 -1.9375,-2.4375 -1.9375,-6.34375 0,-3.90625 1.9375,-6.328128 1.9375,-2.421875 5.01563,-2.421875 1.92187,0 3.21875,0.75 1.3125,0.734375 2.15625,2.296875 v -2.59375 h 5.625 v 1.671875 z m -2.875,5.812503 q 0,-2.98438 -1.15625,-4.562503 -1.14063,-1.578125 -3.32813,-1.578125 -2.21875,0 -3.35937,1.75 -1.125,1.749998 -1.125,5.203128 0,3.4375 1.125,5.20312 1.14062,1.76563 3.35937,1.76563 2.1875,0 3.32813,-1.5625 1.15625,-1.57813 1.15625,-4.57813 z M 99.885269,96.374092 h 5.375001 v 14.953128 h 2.71875 v 1.65625 h -5.59375 v -2.9375 q -0.79688,1.65625 -2.0625,2.53125 -1.265626,0.85937 -2.937501,0.85937 -2.765625,0 -4.078125,-1.5625 -1.296875,-1.57812 -1.296875,-4.9375 v -8.890623 h -2.59375 v -1.671875 h 5.484375 v 9.671878 q 0,3.03125 0.734375,4.15625 0.75,1.125 2.65625,1.125 2.000001,0 3.046871,-1.46875 1.04688,-1.46875 1.04688,-4.26563 v -7.546873 h -2.500001 z m -28.046875,8.156248 h 8.5625 l -4.28125,-11.093748 z m -6.59375,8.45313 v -1.65625 h 2.046875 l 8.3125,-21.671878 h 2.625 l 8.328125,21.671878 h 2.296875 v 1.65625 h -8.484375 v -1.65625 h 2.59375 l -1.953125,-5.125 h -9.8125 l -1.953125,5.125 h 2.5625 v 1.65625 z M 126.70032,60.738738 q -1.83203,2.050781 -4.21093,3.0625 -2.37891,1.011719 -5.35938,1.011719 -6.07031,0 -9.59766,-3.664063 -3.5,-3.664063 -3.5,-10.007813 0,-6.207032 3.80078,-9.925782 3.82813,-3.746094 10.19922,-3.746094 6.91797,0 10.60938,5.167969 3.71875,5.140625 3.71875,14.710939 0,10.71875 -4.40234,16.597657 -4.40235,5.878907 -12.38672,5.878907 -2.16016,0 -4.53907,-0.410157 -2.3789,-0.410156 -4.86718,-1.230469 v -6.78125 h 3.0625 q 0.35546,2.761719 2.13281,4.238282 1.77734,1.476562 4.75781,1.476562 5.30469,0 7.90235,-3.992188 2.59765,-4.019531 2.67968,-12.386719 z M 117.8136,40.176236 q -3.88281,0 -5.96093,2.843751 -2.05079,2.816406 -2.05079,8.121094 0,5.304688 2.05079,8.148438 2.07812,2.84375 5.96093,2.84375 3.88282,0 5.9336,-2.734375 2.07812,-2.761719 2.07812,-7.929688 0,-5.441407 -2.07812,-8.367188 -2.07813,-2.925782 -5.9336,-2.925782 z m -45.800782,7.765626 h -3.0625 v -7.273438 q 2.925781,-1.558594 5.878906,-2.378907 2.980469,-0.820312 5.824219,-0.820312 6.371095,0 10.062501,3.089844 3.691407,3.089844 3.691407,8.394532 0,5.988281 -8.367188,14.328126 -0.65625,0.628906 -0.984375,0.957031 L 74.747193,74.547332 H 91.78235 v -5.03125 h 3.199219 v 9.515626 H 68.649536 v -2.980469 l 12.38672,-12.359376 q 4.101563,-4.101563 5.851563,-7.519532 1.75,-3.445313 1.75,-7.21875 0,-4.128907 -2.160156,-6.453126 -2.132813,-2.324219 -5.906251,-2.324219 -3.910156,0 -6.042969,1.941407 -2.132813,1.941406 -2.515625,5.824219 z M 47.888393,4.6115304 C 42.786742,6.6808013 39.17417,11.639448 39.093527,17.505954 L 37.692741,119.02685 c -0.10752,7.82201 6.112911,14.21192 13.93491,14.31943 l 95.957239,1.31834 c 7.822,0.10753 14.21319,-6.10647 14.32073,-13.92848 L 163.29997,19.216537 C 163.4075,11.394532 157.19349,5.0033358 149.37149,4.8958117 L 121.59311,4.5156777 121.08321,5.0065969 120.89964,18.131676 83.0295,17.61201 83.21307,4.4869334 82.715721,3.9783248 53.407824,3.5787696 c -1.955502,-0.02688 -3.818882,0.3430029 -5.519432,1.0327542 z m 0.366788,0.9230285 C 49.836172,4.8950682 51.57365,4.5532505 53.395259,4.578306 l 28.811347,0.3926338 -0.183568,13.1250802 0.497351,0.508604 38.869661,0.532217 0.50347,-0.489622 0.18357,-13.1250764 27.2754,0.374502 c 7.28642,0.1001633 13.04681,6.0145014 12.94665,13.3009224 L 160.90608,120.7236 c -0.10017,7.28642 -6.02224,13.04167 -13.30865,12.94151 l -95.957225,-1.31836 c -7.286412,-0.10015 -13.0468,-6.01449 -12.94664,-13.30092 L 40.093051,17.518508 c 0.07512,-5.464815 3.419173,-10.0654768 8.162143,-11.9839517 z m 5.14701,-1.4571148 C 45.847975,3.9736027 39.695045,9.959662 39.591201,17.513882 L 38.195658,119.03555 c -0.10384,7.55422 5.882223,13.70715 13.436438,13.81099 l 95.959694,1.31908 c 7.55421,0.10385 13.70713,-5.88221 13.81099,-13.43644 L 162.79831,19.207522 C 162.90216,11.653301 156.9161,5.5003757 149.36188,5.3965316 L 121.58325,5.0146797 121.39598,18.638394 82.524647,18.104058 82.711921,4.4803467 Z" />
    </g>
  </g>
</svg>
