<?xml version="1.0" encoding="UTF-8" standalone="no"?>
<!-- Created with Inkscape (http://www.inkscape.org/) -->

<svg
   xmlns:dc="http://purl.org/dc/elements/1.1/"
   xmlns:cc="http://creativecommons.org/ns#"
   xmlns:rdf="http://www.w3.org/1999/02/22-rdf-syntax-ns#"
   xmlns:svg="http://www.w3.org/2000/svg"
   xmlns="http://www.w3.org/2000/svg"
   xmlns:sodipodi="http://sodipodi.sourceforge.net/DTD/sodipodi-0.dtd"
   xmlns:inkscape="http://www.inkscape.org/namespaces/inkscape"
   width="167.74675"
   height="167.06944"
   id="svg2"
   sodipodi:version="0.32"
   inkscape:version="0.91 r13725"
   version="1.0"
   sodipodi:docname="TKWeek_no_gradients.svg"
   inkscape:output_extension="org.inkscape.output.svg.inkscape"
   inkscape:export-filename="/Users/tommi/Kalenderblätter.png"
   inkscape:export-xdpi="28.01"
   inkscape:export-ydpi="28.01">
  <defs
     id="defs4">
    <inkscape:perspective
       sodipodi:type="inkscape:persp3d"
       inkscape:vp_x="0 : 526.18109 : 1"
       inkscape:vp_y="0 : 1000 : 0"
       inkscape:vp_z="744.09448 : 526.18109 : 1"
       inkscape:persp3d-origin="372.04724 : 350.78739 : 1"
       id="perspective10" />
  </defs>
  <sodipodi:namedview
     id="base"
     pagecolor="#ffffff"
     bordercolor="#666666"
     borderopacity="1.0"
     gridtolerance="10000"
     guidetolerance="10"
     objecttolerance="10"
     inkscape:pageopacity="0.0"
     inkscape:pageshadow="2"
     inkscape:zoom="2.8"
     inkscape:cx="45.497207"
     inkscape:cy="87.845471"
     inkscape:document-units="px"
     inkscape:current-layer="layer1"
     showgrid="false"
     inkscape:window-width="1536"
     inkscape:window-height="801"
     inkscape:window-x="-8"
     inkscape:window-y="-8"
     inkscape:window-maximized="1"
     fit-margin-top="0"
     fit-margin-left="0"
     fit-margin-right="0"
     fit-margin-bottom="0" />
  <metadata
     id="metadata7">
    <rdf:RDF>
      <cc:Work
         rdf:about="">
        <dc:format>image/svg+xml</dc:format>
        <dc:type
           rdf:resource="http://purl.org/dc/dcmitype/StillImage" />
        <dc:title></dc:title>
      </cc:Work>
    </rdf:RDF>
  </metadata>
  <g
     inkscape:label="Layer 1"
     inkscape:groupmode="layer"
     id="layer1"
     transform="translate(-0.97632684,-4.0892334)">
    <g
       id="g4227">
      <path
         inkscape:connector-curvature="0"
         style="opacity:1;fill:#ffffff;fill-opacity:1;stroke:#000000;stroke-width:1;stroke-linecap:butt;stroke-linejoin:miter;stroke-miterlimit:0;stroke-dasharray:none;stroke-dashoffset:0;stroke-opacity:1"
         d="M 103.24904,9.4567173 C 98.38668,3.6744635 89.834184,2.9353646 84.051929,7.7977242 L 6.343811,73.143301 C 0.56155849,78.005659 -0.17754309,86.558159 4.6848178,92.34041 L 66.450367,165.7912 c 4.862359,5.78225 13.414852,6.52135 19.19711,1.65899 l 77.708113,-65.34557 c 5.78225,-4.862362 6.52135,-13.414859 1.65899,-19.197112 L 147.13455,61.644809 136.7065,70.413868 111.68653,40.660436 122.11458,31.891377 103.24904,9.4567173 Z"
         id="path3418" />
      <path
         inkscape:connector-curvature="0"
         id="path3456"
         d="M 72.608727,8.2589008 C 65.933529,4.7207227 57.727511,7.2411855 54.189332,13.916386 L 6.6395103,103.62486 c -3.5381769,6.6752 -1.0177151,14.88122 5.6574857,18.4194 l 84.793697,44.94475 c 6.675197,3.53817 14.881207,1.0177 18.419397,-5.65749 l 47.54982,-89.708472 c 3.53817,-6.6752 1.01771,-14.881218 -5.65749,-18.419396 L 132.85615,40.192945 126.4752,52.231386 92.126986,34.025175 98.507939,21.986735 72.608727,8.2589008 Z"
         style="opacity:1;fill:#ffffff;fill-opacity:1;stroke:#000000;stroke-width:1;stroke-linecap:butt;stroke-linejoin:miter;stroke-miterlimit:0;stroke-dasharray:none;stroke-dashoffset:0;stroke-opacity:1" />
      <path
         inkscape:connector-curvature="0"
         style="opacity:1;fill:#ffffff;fill-opacity:1;stroke:#000000;stroke-width:1;stroke-linecap:butt;stroke-linejoin:miter;stroke-miterlimit:0;stroke-dasharray:none;stroke-dashoffset:0;stroke-opacity:1"
         d="M 51.542324,14.553637 C 44.157708,12.95851 36.942863,17.61012 35.347736,24.994738 L 13.910719,124.23712 c -1.595126,7.38462 3.056484,14.59947 10.441101,16.19459 l 93.80528,20.26256 c 7.38461,1.59513 14.59945,-3.05648 16.19459,-10.4411 L 155.7887,51.010791 C 157.38383,43.626175 152.73222,36.41133 145.3476,34.816203 L 118.19264,28.95055 115.3159,42.268395 77.317274,34.060439 80.194016,20.742595 51.542324,14.553637 Z"
         id="path3462" />
      <g
         id="text3464"
         style="font-style:normal;font-variant:normal;font-weight:normal;font-stretch:normal;font-size:56.00000381px;font-family:'Bitstream Vera Serif';-inkscape-font-specification:'Bitstream Vera Serif';fill:#000000;fill-opacity:1;stroke:none;stroke-width:1px;stroke-linecap:butt;stroke-linejoin:miter;stroke-opacity:1"
         transform="matrix(0.98026619,0.19768208,-0.19768208,0.98026619,0,0)">
        <path
           id="path4216"
           d="m 72.012818,47.941862 -3.0625,0 0,-7.273438 q 2.925781,-1.558594 5.878906,-2.378907 2.980469,-0.820312 5.824219,-0.820312 6.371095,0 10.062501,3.089844 3.691407,3.089844 3.691407,8.394532 0,5.988281 -8.367188,14.328126 -0.65625,0.628906 -0.984375,0.957031 l -10.308595,10.308594 17.035157,0 0,-5.03125 3.199219,0 0,9.515626 -26.332033,0 0,-2.980469 12.38672,-12.359376 q 4.101563,-4.101563 5.851563,-7.519532 1.75,-3.445313 1.75,-7.21875 0,-4.128907 -2.160156,-6.453126 -2.132813,-2.324219 -5.906251,-2.324219 -3.910156,0 -6.042969,1.941407 -2.132813,1.941406 -2.515625,5.824219 z"
           inkscape:connector-curvature="0" />
        <path
           id="path4218"
           d="m 126.70032,60.738738 q -1.83203,2.050781 -4.21093,3.0625 -2.37891,1.011719 -5.35938,1.011719 -6.07031,0 -9.59766,-3.664063 -3.5,-3.664063 -3.5,-10.007813 0,-6.207032 3.80078,-9.925782 3.82813,-3.746094 10.19922,-3.746094 6.91797,0 10.60938,5.167969 3.71875,5.140625 3.71875,14.710939 0,10.71875 -4.40234,16.597657 -4.40235,5.878907 -12.38672,5.878907 -2.16016,0 -4.53907,-0.410157 -2.3789,-0.410156 -4.86718,-1.230469 l 0,-6.78125 3.0625,0 q 0.35546,2.761719 2.13281,4.238282 1.77734,1.476562 4.75781,1.476562 5.30469,0 7.90235,-3.992188 2.59765,-4.019531 2.67968,-12.386719 z M 117.8136,40.176236 q -3.88281,0 -5.96093,2.843751 -2.05079,2.816406 -2.05079,8.121094 0,5.304688 2.05079,8.148438 2.07812,2.84375 5.96093,2.84375 3.88282,0 5.9336,-2.734375 2.07812,-2.761719 2.07812,-7.929688 0,-5.441407 -2.07812,-8.367188 -2.07813,-2.925782 -5.9336,-2.925782 z"
           inkscape:connector-curvature="0" />
      </g>
      <g
         id="text3468"
         style="font-style:normal;font-variant:normal;font-weight:normal;font-stretch:normal;font-size:32px;font-family:'Bitstream Vera Serif';-inkscape-font-specification:'Bitstream Vera Serif';fill:#000000;fill-opacity:1;stroke:none;stroke-width:1px;stroke-linecap:butt;stroke-linejoin:miter;stroke-opacity:1"
         transform="matrix(0.98026619,0.19768208,-0.19768208,0.98026619,0,0)">
        <path
           id="path4221"
           d="m 71.838394,104.53034 8.5625,0 -4.28125,-11.093748 -4.28125,11.093748 z m -6.59375,8.45313 0,-1.65625 2.046875,0 8.3125,-21.671878 2.625,0 8.328125,21.671878 2.296875,0 0,1.65625 -8.484375,0 0,-1.65625 2.59375,0 -1.953125,-5.125 -9.8125,0 -1.953125,5.125 2.5625,0 0,1.65625 -6.5625,0 z"
           inkscape:connector-curvature="0" />
        <path
           id="path4223"
           d="m 99.885269,96.374092 5.375001,0 0,14.953128 2.71875,0 0,1.65625 -5.59375,0 0,-2.9375 q -0.79688,1.65625 -2.0625,2.53125 -1.265626,0.85937 -2.937501,0.85937 -2.765625,0 -4.078125,-1.5625 -1.296875,-1.57812 -1.296875,-4.9375 l 0,-8.890623 -2.59375,0 0,-1.671875 5.484375,0 0,9.671878 q 0,3.03125 0.734375,4.15625 0.75,1.125 2.65625,1.125 2.000001,0 3.046871,-1.46875 1.04688,-1.46875 1.04688,-4.26563 l 0,-7.546873 -2.500001,0 0,-1.671875 z"
           inkscape:connector-curvature="0" />
        <path
           id="path4225"
           d="m 125.97902,98.045967 0,14.578123 q 0,3.57813 -1.96875,5.51563 -1.96875,1.95312 -5.60938,1.95312 -1.64062,0 -3.14062,-0.29687 -1.5,-0.29688 -2.875,-0.89063 l 0,-3.48437 1.5,0 q 0.28125,1.625 1.32812,2.375 1.04688,0.75 3,0.75 2.53125,0 3.70313,-1.4375 1.1875,-1.42188 1.1875,-4.48438 l 0,-2.23437 q -0.84375,1.5625 -2.15625,2.3125 -1.29688,0.73437 -3.21875,0.73437 -3.0625,0 -5.01563,-2.42187 -1.9375,-2.4375 -1.9375,-6.34375 0,-3.90625 1.9375,-6.328128 1.9375,-2.421875 5.01563,-2.421875 1.92187,0 3.21875,0.75 1.3125,0.734375 2.15625,2.296875 l 0,-2.59375 5.625,0 0,1.671875 -2.75,0 z m -2.875,5.812503 q 0,-2.98438 -1.15625,-4.562503 -1.14063,-1.578125 -3.32813,-1.578125 -2.21875,0 -3.35937,1.75 -1.125,1.749998 -1.125,5.203128 0,3.4375 1.125,5.20312 1.14062,1.76563 3.35937,1.76563 2.1875,0 3.32813,-1.5625 1.15625,-1.57813 1.15625,-4.57813 l 0,-1.64062 z"
           inkscape:connector-curvature="0" />
      </g>
    </g>
  </g>
</svg>
